<mxfile host="www.draw.io" modified="2019-12-26T15:29:54.196Z" agent="Mozilla/5.0 (Windows NT 10.0; Win64; x64) AppleWebKit/537.36 (KHTML, like Gecko) Chrome/79.0.3945.88 Safari/537.36" etag="fXPhLOkya79cFumpqiTE" version="12.4.3" type="gitlab" pages="1">
  <diagram id="U1858BAQtpyqHoj_VeQT" name="Page-1">
    <mxGraphModel dx="1038" dy="556" grid="1" gridSize="10" guides="1" tooltips="1" connect="1" arrows="1" fold="1" page="1" pageScale="1" pageWidth="850" pageHeight="1100" math="0" shadow="0">
      <root>
        <mxCell id="0"/>
        <mxCell id="1" parent="0"/>
        <mxCell id="hOrVnxYCZcjOOdQy9KLi-1" value="" style="edgeStyle=orthogonalEdgeStyle;rounded=0;orthogonalLoop=1;jettySize=auto;html=1;" parent="1" source="hOrVnxYCZcjOOdQy9KLi-2" target="hOrVnxYCZcjOOdQy9KLi-4" edge="1">
          <mxGeometry relative="1" as="geometry"/>
        </mxCell>
        <mxCell id="hOrVnxYCZcjOOdQy9KLi-2" value="Data Collection" style="rounded=1;whiteSpace=wrap;html=1;gradientColor=none;fontSize=14;" parent="1" vertex="1">
          <mxGeometry x="80" y="40" width="200" height="44" as="geometry"/>
        </mxCell>
        <mxCell id="hOrVnxYCZcjOOdQy9KLi-3" value="" style="edgeStyle=orthogonalEdgeStyle;rounded=0;orthogonalLoop=1;jettySize=auto;html=1;" parent="1" source="hOrVnxYCZcjOOdQy9KLi-4" target="hOrVnxYCZcjOOdQy9KLi-6" edge="1">
          <mxGeometry relative="1" as="geometry"/>
        </mxCell>
        <mxCell id="hOrVnxYCZcjOOdQy9KLi-4" value="Preprocessing Data" style="rounded=1;whiteSpace=wrap;html=1;fontSize=14;" parent="1" vertex="1">
          <mxGeometry x="80" y="120" width="200" height="44" as="geometry"/>
        </mxCell>
        <mxCell id="hOrVnxYCZcjOOdQy9KLi-5" value="" style="edgeStyle=orthogonalEdgeStyle;rounded=0;orthogonalLoop=1;jettySize=auto;html=1;" parent="1" source="hOrVnxYCZcjOOdQy9KLi-6" target="hOrVnxYCZcjOOdQy9KLi-8" edge="1">
          <mxGeometry relative="1" as="geometry"/>
        </mxCell>
        <mxCell id="hOrVnxYCZcjOOdQy9KLi-6" value="Frequent Itemset Generation&lt;br&gt;&lt;font style=&quot;font-size: 12px&quot;&gt;(Apriori Algorithm)&lt;/font&gt;" style="rounded=1;whiteSpace=wrap;html=1;fontSize=14;" parent="1" vertex="1">
          <mxGeometry x="80" y="200" width="200" height="44" as="geometry"/>
        </mxCell>
        <mxCell id="hOrVnxYCZcjOOdQy9KLi-7" value="" style="edgeStyle=orthogonalEdgeStyle;rounded=0;orthogonalLoop=1;jettySize=auto;html=1;" parent="1" source="hOrVnxYCZcjOOdQy9KLi-8" target="hOrVnxYCZcjOOdQy9KLi-13" edge="1">
          <mxGeometry relative="1" as="geometry"/>
        </mxCell>
        <mxCell id="hOrVnxYCZcjOOdQy9KLi-8" value="Rule Generation&lt;br&gt;&lt;font style=&quot;font-size: 12px&quot;&gt;(Association Rule Mining)&lt;/font&gt;" style="rounded=1;whiteSpace=wrap;html=1;fontSize=14;" parent="1" vertex="1">
          <mxGeometry x="80" y="280" width="200" height="44" as="geometry"/>
        </mxCell>
        <mxCell id="hOrVnxYCZcjOOdQy9KLi-9" value="" style="endArrow=none;dashed=1;html=1;" parent="1" edge="1">
          <mxGeometry width="50" height="50" relative="1" as="geometry">
            <mxPoint x="40" y="110" as="sourcePoint"/>
            <mxPoint x="320" y="110" as="targetPoint"/>
          </mxGeometry>
        </mxCell>
        <mxCell id="hOrVnxYCZcjOOdQy9KLi-10" value="" style="endArrow=none;dashed=1;html=1;" parent="1" edge="1">
          <mxGeometry width="50" height="50" relative="1" as="geometry">
            <mxPoint x="40" y="330" as="sourcePoint"/>
            <mxPoint x="40" y="110" as="targetPoint"/>
            <Array as="points">
              <mxPoint x="40" y="220"/>
            </Array>
          </mxGeometry>
        </mxCell>
        <mxCell id="hOrVnxYCZcjOOdQy9KLi-11" value="" style="endArrow=none;dashed=1;html=1;" parent="1" edge="1">
          <mxGeometry width="50" height="50" relative="1" as="geometry">
            <mxPoint x="320" y="330" as="sourcePoint"/>
            <mxPoint x="320" y="110" as="targetPoint"/>
          </mxGeometry>
        </mxCell>
        <mxCell id="hOrVnxYCZcjOOdQy9KLi-12" value="" style="endArrow=none;dashed=1;html=1;" parent="1" edge="1">
          <mxGeometry width="50" height="50" relative="1" as="geometry">
            <mxPoint x="40" y="330" as="sourcePoint"/>
            <mxPoint x="320" y="330" as="targetPoint"/>
          </mxGeometry>
        </mxCell>
        <mxCell id="hOrVnxYCZcjOOdQy9KLi-13" value="Recommendation List" style="rounded=1;whiteSpace=wrap;html=1;fontSize=14;" parent="1" vertex="1">
          <mxGeometry x="80" y="360" width="200" height="44" as="geometry"/>
        </mxCell>
      </root>
    </mxGraphModel>
  </diagram>
</mxfile>
